<?xml version="1.0" encoding="UTF-8" standalone="no"?>
<svg
   xmlns:dc="http://purl.org/dc/elements/1.1/"
   xmlns:cc="http://creativecommons.org/ns#"
   xmlns:rdf="http://www.w3.org/1999/02/22-rdf-syntax-ns#"
   xmlns:svg="http://www.w3.org/2000/svg"
   xmlns="http://www.w3.org/2000/svg"
   xmlns:sodipodi="http://sodipodi.sourceforge.net/DTD/sodipodi-0.dtd"
   xmlns:inkscape="http://www.inkscape.org/namespaces/inkscape"
   inkscape:export-ydpi="84.666672"
   inkscape:export-xdpi="84.666672"
   inkscape:export-filename="banner.png"
   sodipodi:docname="tesseroids.svg"
   inkscape:version="1.0 (4035a4fb49, 2020-05-01)"
   version="1.1"
   id="svg2"
   height="106.29921"
   width="538.58264">
  <defs
     id="defs4" />
  <sodipodi:namedview
     inkscape:document-rotation="0"
     inkscape:window-maximized="0"
     inkscape:window-y="0"
     inkscape:window-x="0"
     inkscape:window-height="1800"
     inkscape:window-width="3200"
     units="cm"
     showgrid="false"
     inkscape:current-layer="g3094"
     inkscape:document-units="px"
     inkscape:cy="66.238747"
     inkscape:cx="217.60602"
     inkscape:zoom="6.0773923"
     inkscape:pageshadow="2"
     inkscape:pageopacity="0"
     borderopacity="1.0"
     bordercolor="#666666"
     pagecolor="#ffffff"
     id="base" />
  <metadata
     id="metadata7">
    <rdf:RDF>
      <cc:Work
         rdf:about="">
        <dc:format>image/svg+xml</dc:format>
        <dc:type
           rdf:resource="http://purl.org/dc/dcmitype/StillImage" />
        <dc:title></dc:title>
      </cc:Work>
    </rdf:RDF>
  </metadata>
  <g
     transform="translate(0,-946.06164)"
     id="layer1"
     inkscape:groupmode="layer"
     inkscape:label="Layer 1">
    <g
       transform="matrix(0.90061553,0,0,0.90061553,-84.60945,620.62391)"
       id="g3094">
      <g
         id="g3076"
         transform="matrix(1.7734131,0,0,1.7155189,-46.076628,-372.1292)">
        <path
           sodipodi:nodetypes="csssssscc"
           inkscape:connector-curvature="0"
           id="path3068"
           d="m 90.250359,464.11034 c -4.882519,0 -9.102257,4.27648 -9.102257,8.82463 0,0.88246 0.697303,3.47028 2.696076,5.31422 2.952951,2.7242 3.920072,3.12675 5.1596,2.14761 1.037682,-0.8197 1.743156,-0.86972 2.206303,-0.15645 1.015156,1.56341 5.862685,0.93323 7.758353,-0.55914 0.987501,-0.77741 2.933396,-3.53932 3.040206,-5.79173 0.17186,-3.62386 -0.13671,-5.43642 -3.797644,-7.6948 -3.183431,-2.07328 -5.89073,-2.19297 -7.960637,-2.08434 z"
           style="fill:#d40000" />
        <path
           id="path3059"
           d="m 95.109885,462.69907 c 0.47005,0.29051 1.89849,-0.58293 3.17431,-1.94098 l 2.319685,-2.46918 h -3.019335 c -2.98179,0 -6.013627,3.62717 -6.013627,5.90203"
           style="fill:#5aa02c"
           inkscape:connector-curvature="0" />
        <path
           inkscape:connector-curvature="0"
           id="path3057"
           d="m 83.42422,473.87676 c -0.636729,-1.17961 -0.584363,-2.53169 0.168656,-4.03977 1.159619,-2.32238 2.157527,-1.26698 2.157527,1.80108 0,3.49169 -0.934033,4.8178 -2.326183,2.23869 z"
           style="fill:#ffffff"
           sodipodi:nodetypes="ssss" />
      </g>
      <path
         style="fill:#b3b3b3"
         d="m 121.72606,401.68104 c -0.25693,-2.00721 0.30135,-4.04939 -0.10371,-6.043 -0.55707,-1.41232 -1.19282,0.59659 -1.47242,1.18493 -1.45539,3.45038 -1.58996,7.76552 0.71879,10.88475 0.72541,1.25451 0.86368,-0.98571 0.87243,-1.57397 0.0464,-1.48416 -0.15391,-2.97101 -0.0151,-4.45271 z m -7.5,9.61803 c 1.04156,-3.83678 2.64701,-7.76068 1.91665,-11.80746 -0.0261,-1.87753 0.38558,-3.84674 -0.29437,-5.65148 -0.30172,-0.8173 -1.36729,-0.81609 -1.27088,0.1777 -0.78144,3.24718 0.0308,6.594 -0.35015,9.876 0.31476,1.74091 -0.75611,3.31927 -1.35802,4.87685 -0.39037,0.99316 -1.00636,2.33102 -0.12612,3.24385 0.42422,0.41045 1.31567,0.83134 1.40731,-0.0181 0.0252,-0.23244 0.0503,-0.46497 0.0756,-0.69737 z m -6.2,6.18197 c 1.65173,-5.32426 1.01454,-10.95557 1.15575,-16.4375 -0.0934,-1.64577 -0.31786,-3.37731 -1.1907,-4.80842 -0.50514,-0.84228 -1.43133,-0.2425 -1.12218,0.61567 -0.30319,7.2734 -0.0705,14.55341 -0.0929,21.82982 0.43837,-0.37669 0.83715,-0.79587 1.24999,-1.19957 z"
         id="path3008"
         inkscape:connector-curvature="0" />
      <g
         id="g3071"
         style="fill:#1a1a1a">
        <path
           inkscape:connector-curvature="0"
           id="path3061"
           d="m 163.08283,474.22591 c 0.36667,-0.36666 0.66667,-20.39166 0.66667,-44.5 v -43.83333 h 21.53621 21.53621 l -0.28621,-9.75 -0.28621,-9.75 h -53 -53 l -0.28598,9.7304 -0.28597,9.73039 21.78597,0.26961 21.78598,0.2696 0.2604,44.25 0.2604,44.25 h 9.32293 c 5.12762,0 9.62294,-0.3 9.9896,-0.66667 z"
           style="fill:#1a1a1a" />
        <g
           style="font-style:normal;font-variant:normal;font-weight:normal;font-stretch:normal;line-height:0%;font-family:Arial;-inkscape-font-specification:Arial;letter-spacing:0px;word-spacing:0px;fill:#1a1a1a;fill-opacity:1;stroke:none"
           id="text2996"
           aria-label="esseroids">
          <path
             id="path844"
             style="font-style:normal;font-variant:normal;font-weight:normal;font-stretch:normal;font-size:120px;line-height:1.25;font-family:Ubuntu;-inkscape-font-specification:Ubuntu;fill:#1a1a1a"
             d="m 185.88505,442.85362 q 0,-8.28 2.4,-14.4 2.4,-6.24 6.36,-10.32 3.96,-4.08 9.12,-6.12 5.16,-2.04 10.56,-2.04 12.6,0 19.32,7.92 6.72,7.8 6.72,23.88 0,0.72 0,1.92 0,1.08 -0.12,2.04 h -42.72 q 0.72,9.72 5.64,14.76 4.92,5.04 15.36,5.04 5.88,0 9.84,-0.96 4.08,-1.08 6.12,-2.04 l 1.56,9.36 q -2.04,1.08 -7.2,2.28 -5.04,1.2 -11.52,1.2 -8.16,0 -14.16,-2.4 -5.88,-2.52 -9.72,-6.84 -3.84,-4.32 -5.76,-10.2 -1.8,-6 -1.8,-13.08 z m 42.84,-6.12 q 0.12,-7.56 -3.84,-12.36 -3.84,-4.92 -10.68,-4.92 -3.84,0 -6.84,1.56 -2.88,1.44 -4.92,3.84 -2.04,2.4 -3.24,5.52 -1.08,3.12 -1.44,6.36 z" />
          <path
             id="path846"
             style="font-style:normal;font-variant:normal;font-weight:normal;font-stretch:normal;font-size:120px;line-height:1.25;font-family:Ubuntu;-inkscape-font-specification:Ubuntu;fill:#1a1a1a"
             d="m 270.96482,465.89362 q 6.84,0 10.08,-1.8 3.36,-1.8 3.36,-5.76 0,-4.08 -3.24,-6.48 -3.24,-2.4 -10.68,-5.4 -3.6,-1.44 -6.96,-2.88 -3.24,-1.56 -5.64,-3.6 -2.4,-2.04 -3.84,-4.92 -1.44,-2.88 -1.44,-7.08 0,-8.28 6.12,-13.08 6.12,-4.92 16.68,-4.92 2.64,0 5.28,0.36 2.64,0.24 4.92,0.72 2.28,0.36 3.96,0.84 1.8,0.48 2.76,0.84 l -2.04,9.6 q -1.8,-0.96 -5.64,-1.92 -3.84,-1.08 -9.24,-1.08 -4.68,0 -8.16,1.92 -3.48,1.8 -3.48,5.76 0,2.04 0.72,3.6 0.84,1.56 2.4,2.88 1.68,1.2 4.08,2.28 2.4,1.08 5.76,2.28 4.44,1.68 7.92,3.36 3.48,1.56 5.88,3.72 2.52,2.16 3.84,5.28 1.32,3 1.32,7.44 0,8.64 -6.48,13.08 -6.36,4.44 -18.24,4.44 -8.28,0 -12.96,-1.44 -4.68,-1.32 -6.36,-2.04 l 2.04,-9.6 q 1.92,0.72 6.12,2.16 4.2,1.44 11.16,1.44 z" />
          <path
             id="path848"
             style="font-style:normal;font-variant:normal;font-weight:normal;font-stretch:normal;font-size:120px;line-height:1.25;font-family:Ubuntu;-inkscape-font-specification:Ubuntu;fill:#1a1a1a"
             d="m 324.48472,465.89362 q 6.84,0 10.08,-1.8 3.36,-1.8 3.36,-5.76 0,-4.08 -3.24,-6.48 -3.24,-2.4 -10.68,-5.4 -3.6,-1.44 -6.96,-2.88 -3.24,-1.56 -5.64,-3.6 -2.4,-2.04 -3.84,-4.92 -1.44,-2.88 -1.44,-7.08 0,-8.28 6.12,-13.08 6.12,-4.92 16.68,-4.92 2.64,0 5.28,0.36 2.64,0.24 4.92,0.72 2.28,0.36 3.96,0.84 1.8,0.48 2.76,0.84 l -2.04,9.6 q -1.8,-0.96 -5.64,-1.92 -3.84,-1.08 -9.24,-1.08 -4.68,0 -8.16,1.92 -3.48,1.8 -3.48,5.76 0,2.04 0.72,3.6 0.84,1.56 2.4,2.88 1.68,1.2 4.08,2.28 2.4,1.08 5.76,2.28 4.44,1.68 7.92,3.36 3.48,1.56 5.88,3.72 2.52,2.16 3.84,5.28 1.32,3 1.32,7.44 0,8.64 -6.48,13.08 -6.36,4.44 -18.24,4.44 -8.28,0 -12.96,-1.44 -4.68,-1.32 -6.36,-2.04 l 2.04,-9.6 q 1.92,0.72 6.12,2.16 4.2,1.44 11.16,1.44 z" />
          <path
             id="path850"
             style="font-style:normal;font-variant:normal;font-weight:normal;font-stretch:normal;font-size:120px;line-height:1.25;font-family:Ubuntu;-inkscape-font-specification:Ubuntu;fill:#1a1a1a"
             d="m 360.00461,442.85362 q 0,-8.28 2.4,-14.4 2.4,-6.24 6.36,-10.32 3.96,-4.08 9.12,-6.12 5.16,-2.04 10.56,-2.04 12.6,0 19.32,7.92 6.72,7.8 6.72,23.88 0,0.72 0,1.92 0,1.08 -0.12,2.04 h -42.72 q 0.72,9.72 5.64,14.76 4.92,5.04 15.36,5.04 5.88,0 9.84,-0.96 4.08,-1.08 6.12,-2.04 l 1.56,9.36 q -2.04,1.08 -7.2,2.28 -5.04,1.2 -11.52,1.2 -8.16,0 -14.16,-2.4 -5.88,-2.52 -9.72,-6.84 -3.84,-4.32 -5.76,-10.2 -1.8,-6 -1.8,-13.08 z m 42.84,-6.12 q 0.12,-7.56 -3.84,-12.36 -3.84,-4.92 -10.68,-4.92 -3.84,0 -6.84,1.56 -2.88,1.44 -4.92,3.84 -2.04,2.4 -3.24,5.52 -1.08,3.12 -1.44,6.36 z" />
          <path
             id="path852"
             style="font-style:normal;font-variant:normal;font-weight:normal;font-stretch:normal;font-size:120px;line-height:1.25;font-family:Ubuntu;-inkscape-font-specification:Ubuntu;fill:#1a1a1a"
             d="m 453.60439,410.21362 q 1.44,0 3.24,0.24 1.92,0.12 3.72,0.48 1.8,0.24 3.24,0.6 1.56,0.24 2.28,0.48 l -1.92,9.72 q -1.32,-0.48 -4.44,-1.08 -3,-0.72 -7.8,-0.72 -3.12,0 -6.24,0.72 -3,0.6 -3.96,0.84 v 52.44 h -11.16 v -59.76 q 3.96,-1.44 9.84,-2.64 5.88,-1.32 13.2,-1.32 z" />
          <path
             id="path854"
             style="font-style:normal;font-variant:normal;font-weight:normal;font-stretch:normal;font-size:120px;line-height:1.25;font-family:Ubuntu;-inkscape-font-specification:Ubuntu;fill:#1a1a1a"
             d="m 531.96433,442.73362 q 0,7.44 -2.16,13.44 -2.16,6 -6.12,10.32 -3.84,4.32 -9.24,6.72 -5.4,2.28 -11.76,2.28 -6.36,0 -11.76,-2.28 -5.4,-2.4 -9.36,-6.72 -3.84,-4.32 -6,-10.32 -2.16,-6 -2.16,-13.44 0,-7.32 2.16,-13.32 2.16,-6.12 6,-10.44 3.96,-4.32 9.36,-6.6 5.4,-2.4 11.76,-2.4 6.36,0 11.76,2.4 5.4,2.28 9.24,6.6 3.96,4.32 6.12,10.44 2.16,6 2.16,13.32 z m -11.64,0 q 0,-10.56 -4.8,-16.68 -4.68,-6.24 -12.84,-6.24 -8.16,0 -12.96,6.24 -4.68,6.12 -4.68,16.68 0,10.56 4.68,16.8 4.8,6.12 12.96,6.12 8.16,0 12.84,-6.12 4.8,-6.24 4.8,-16.8 z" />
          <path
             id="path856"
             style="font-style:normal;font-variant:normal;font-weight:normal;font-stretch:normal;font-size:120px;line-height:1.25;font-family:Ubuntu;-inkscape-font-specification:Ubuntu;fill:#1a1a1a"
             d="m 558.84414,473.93362 h -11.16 v -62.4 h 11.16 z m -5.64,-73.68 q -3,0 -5.16,-1.92 -2.04,-2.04 -2.04,-5.4 0,-3.36 2.04,-5.28 2.16,-2.04 5.16,-2.04 3,0 5.04,2.04 2.16,1.92 2.16,5.28 0,3.36 -2.16,5.4 -2.04,1.92 -5.04,1.92 z" />
          <path
             id="path858"
             style="font-style:normal;font-variant:normal;font-weight:normal;font-stretch:normal;font-size:120px;line-height:1.25;font-family:Ubuntu;-inkscape-font-specification:Ubuntu;fill:#1a1a1a"
             d="m 618.36394,424.73362 q -2.04,-1.68 -5.88,-3.24 -3.84,-1.56 -8.4,-1.56 -4.8,0 -8.28,1.8 -3.36,1.68 -5.52,4.8 -2.16,3 -3.12,7.2 -0.96,4.2 -0.96,9 0,10.92 5.4,16.92 5.4,5.88 14.4,5.88 4.56,0 7.56,-0.36 3.12,-0.48 4.8,-0.96 z m 0,-42 11.16,-1.92 v 91.32 q -3.84,1.08 -9.84,2.16 -6,1.08 -13.8,1.08 -7.2,0 -12.96,-2.28 -5.76,-2.28 -9.84,-6.48 -4.08,-4.2 -6.36,-10.2 -2.16,-6.12 -2.16,-13.68 0,-7.2 1.8,-13.2 1.92,-6 5.52,-10.32 3.6,-4.32 8.76,-6.72 5.28,-2.4 12,-2.4 5.4,0 9.48,1.44 4.2,1.44 6.24,2.76 z" />
          <path
             id="path860"
             style="font-style:normal;font-variant:normal;font-weight:normal;font-stretch:normal;font-size:120px;line-height:1.25;font-family:Ubuntu;-inkscape-font-specification:Ubuntu;fill:#1a1a1a"
             d="m 663.24381,465.89362 q 6.84,0 10.08,-1.8 3.36,-1.8 3.36,-5.76 0,-4.08 -3.24,-6.48 -3.24,-2.4 -10.68,-5.4 -3.6,-1.44 -6.96,-2.88 -3.24,-1.56 -5.64,-3.6 -2.4,-2.04 -3.84,-4.92 -1.44,-2.88 -1.44,-7.08 0,-8.28 6.12,-13.08 6.12,-4.92 16.68,-4.92 2.64,0 5.28,0.36 2.64,0.24 4.92,0.72 2.28,0.36 3.96,0.84 1.8,0.48 2.76,0.84 l -2.04,9.6 q -1.8,-0.96 -5.64,-1.92 -3.84,-1.08 -9.24,-1.08 -4.68,0 -8.16,1.92 -3.48,1.8 -3.48,5.76 0,2.04 0.72,3.6 0.84,1.56 2.4,2.88 1.68,1.2 4.08,2.28 2.4,1.08 5.76,2.28 4.44,1.68 7.92,3.36 3.48,1.56 5.88,3.72 2.52,2.16 3.84,5.28 1.32,3 1.32,7.44 0,8.64 -6.48,13.08 -6.36,4.44 -18.24,4.44 -8.28,0 -12.96,-1.44 -4.68,-1.32 -6.36,-2.04 l 2.04,-9.6 q 1.92,0.72 6.12,2.16 4.2,1.44 11.16,1.44 z" />
        </g>
      </g>
    </g>
    <flowRoot
       style="font-style:normal;font-variant:normal;font-weight:normal;font-stretch:normal;line-height:0.01%;font-family:Arial;-inkscape-font-specification:Arial;letter-spacing:0px;word-spacing:0px;fill:#000000;fill-opacity:1;stroke:none"
       id="flowRoot3000"
       xml:space="preserve"><flowRegion
         id="flowRegion3002"><rect
           y="592.36218"
           x="660"
           height="11.428572"
           width="0"
           id="rect3004" /></flowRegion><flowPara
         style="font-size:11px;line-height:1.25"
         id="flowPara3006"> </flowPara></flowRoot>
  </g>
</svg>
